<svg aria-hidden="true" style="width:0;height:0;position:absolute;overflow:hidden" xmlns="http://www.w3.org/2000/svg"><defs><symbol id="icon-moon" viewBox="0 0 32 32"><path fill="none" stroke="#fff" style="stroke:var(--color1,#fff)" stroke-linejoin="round" stroke-linecap="round" stroke-width="2.133" d="M2.189 16.585c.515 7.14 6.772 12.948 14.261 13.267 5.283.222 10.008-2.163 12.843-5.92 1.174-1.539.544-2.565-1.417-2.218-.959.166-1.947.236-2.978.194-7.002-.277-12.729-5.947-12.757-12.643a11.998 11.998 0 0 1 1.074-5.06c.773-1.719-.157-2.537-1.947-1.802-5.67 2.315-9.55 7.847-9.078 14.182z"/></symbol><symbol id="icon-sun" viewBox="0 0 32 32"><path fill="none" stroke="#fff" style="stroke:var(--color1,#fff)" stroke-linejoin="round" stroke-linecap="round" stroke-width="2" d="M16 26c5.523 0 10-4.477 10-10S21.523 6 16 6v0C10.477 6 6 10.477 6 16s4.477 10 10 10v0z"/><path fill="none" stroke="#fff" style="stroke:var(--color1,#fff)" stroke-linejoin="round" stroke-linecap="round" stroke-width="3" d="m25.814 6.186.182-.182M6.004 25.996l.182-.182M16 2.112V2m0 28v-.112M2.112 16H2m28 0h-.112M6.186 6.186l-.182-.182m19.992 19.992-.182-.182"/></symbol><symbol id="icon-heart" viewBox="0 0 32 32"><path fill="#f87719" style="fill:var(--color2,#f87719)" d="m16 30.583-2.24-2.24C5.44 20.983 0 16.023 0 9.943c0-4.96 3.84-8.8 8.8-8.8 2.72 0 5.44 1.28 7.2 3.36 1.76-2.08 4.48-3.36 7.2-3.36 4.96 0 8.8 3.84 8.8 8.8 0 6.08-5.44 11.04-13.76 18.4L16 30.583z"/></symbol><symbol id="icon-close" viewBox="0 0 32 32"><path stroke="#fff" style="stroke:var(--color1,#fff)" stroke-linejoin="round" stroke-linecap="round" stroke-width="1.333" d="M23 23 9 9m14 0L9 23"/></symbol><symbol id="icon-search" viewBox="0 0 32 32"><path fill="none" stroke="#fff" style="stroke:var(--color1,#fff)" stroke-linejoin="round" stroke-linecap="round" stroke-width="2.08" d="M14.667 25.333c5.891 0 10.667-4.776 10.667-10.667S20.558 3.999 14.667 3.999 4 8.775 4 14.666s4.776 10.667 10.667 10.667zM28 28l-5.8-5.8"/></symbol><symbol id="icon-scroll-up-button" viewBox="0 0 32 32"><path d="m27.414 12.586-10-10a2 2 0 0 0-2.828 0l-10 10a2 2 0 1 0 2.828 2.828L14 8.828V28a2 2 0 1 0 4 0V8.828l6.586 6.586c.39.39.902.586 1.414.586s1.024-.195 1.414-.586a2 2 0 0 0 0-2.828z"/></symbol></defs></svg>