<svg aria-hidden="true" style="position: absolute; width: 0; height: 0; overflow: hidden;" version="1.1"
  xmlns="http://www.w3.org/2000/svg" xmlns:xlink="http://www.w3.org/1999/xlink">
  <defs>
    <symbol id="icon-moon" viewBox="0 0 32 32">
      <path fill="none" stroke="#fff" style="stroke: var(--color1, #fff)" stroke-linejoin="round" stroke-linecap="round"
        stroke-miterlimit="4" stroke-width="2.1333"
        d="M2.189 16.585c0.515 7.14 6.772 12.948 14.261 13.267 5.283 0.222 10.008-2.163 12.843-5.92 1.174-1.539 0.544-2.565-1.417-2.218-0.959 0.166-1.947 0.236-2.978 0.194-7.002-0.277-12.729-5.947-12.757-12.643-0.014-1.802 0.372-3.507 1.074-5.060 0.773-1.719-0.157-2.537-1.947-1.802-5.67 2.315-9.55 7.847-9.078 14.182z">
      </path>
    </symbol>
    <symbol id="icon-sun" viewBox="0 0 32 32">
      <path fill="none" stroke="#fff" style="stroke: var(--color1, #fff)" stroke-linejoin="round" stroke-linecap="round"
        stroke-miterlimit="4" stroke-width="2"
        d="M16 26c5.523 0 10-4.477 10-10s-4.477-10-10-10v0c-5.523 0-10 4.477-10 10s4.477 10 10 10v0z"></path>
      <path fill="none" stroke="#fff" style="stroke: var(--color1, #fff)" stroke-linejoin="round" stroke-linecap="round"
        stroke-miterlimit="4" stroke-width="3"
        d="M25.814 6.186l0.182-0.182M6.004 25.996l0.182-0.182M16 2.112v-0.112M16 30v-0.112M2.112 16h-0.112M30 16h-0.112M6.186 6.186l-0.182-0.182M25.996 25.996l-0.182-0.182">
      </path>
    </symbol>
    <symbol id="icon-heart" viewBox="0 0 32 32">
      <path fill="#f87719" style="fill: var(--color2, #f87719)"
        d="M16 30.583l-2.24-2.24c-8.32-7.36-13.76-12.32-13.76-18.4 0-4.96 3.84-8.8 8.8-8.8 2.72 0 5.44 1.28 7.2 3.36 1.76-2.080 4.48-3.36 7.2-3.36 4.96 0 8.8 3.84 8.8 8.8 0 6.080-5.44 11.040-13.76 18.4l-2.24 2.24z">
      </path>
    </symbol>
    <symbol id="icon-close" viewBox="0 0 32 32">
      <path stroke="#fff" style="stroke: var(--color1, #fff)" stroke-linejoin="round" stroke-linecap="round"
        stroke-miterlimit="4" stroke-width="1.3333" d="M23 23l-14-14M23 9l-14 14"></path>
    </symbol>
    <symbol id="icon-search" viewBox="0 0 32 32">
      <path fill="none" stroke="#fff" style="stroke: var(--color1, #fff)" stroke-linejoin="round" stroke-linecap="round"
        stroke-miterlimit="4" stroke-width="2.0800"
        d="M14.667 25.333c5.891 0 10.667-4.776 10.667-10.667s-4.776-10.667-10.667-10.667c-5.891 0-10.667 4.776-10.667 10.667s4.776 10.667 10.667 10.667z">
      </path>
      <path fill="none" stroke="#fff" style="stroke: var(--color1, #fff)" stroke-linejoin="round" stroke-linecap="round"
        stroke-miterlimit="4" stroke-width="2.0800" d="M28 28l-5.8-5.8"></path>
    </symbol>
    <symbol id="icon-scroll-up-button" viewBox="0 0 32 32">
<path d="M27.414 12.586l-10-10c-0.781-0.781-2.047-0.781-2.828 0l-10 10c-0.781 0.781-0.781 2.047 0 2.828s2.047 0.781 2.828 0l6.586-6.586v19.172c0 1.105 0.895 2 2 2s2-0.895 2-2v-19.172l6.586 6.586c0.39 0.39 0.902 0.586 1.414 0.586s1.024-0.195 1.414-0.586c0.781-0.781 0.781-2.047 0-2.828z"></path>
</symbol>
  </defs>
</svg>