<svg aria-hidden="true" style="position: absolute; width: 0; height: 0; overflow: hidden;" version="1.1"
  xmlns="http://www.w3.org/2000/svg" xmlns:xlink="http://www.w3.org/1999/xlink">
  <defs>
    <symbol id="icon-moon" viewBox="0 0 32 32">
      <path fill="none" stroke="#fff" style="stroke: var(--color1, #fff)" stroke-linejoin="round" stroke-linecap="round"
        stroke-miterlimit="4" stroke-width="2.1333"
        d="M2.189 16.585c0.515 7.14 6.772 12.948 14.261 13.267 5.283 0.222 10.008-2.163 12.843-5.92 1.174-1.539 0.544-2.565-1.417-2.218-0.959 0.166-1.947 0.236-2.978 0.194-7.002-0.277-12.729-5.947-12.757-12.643-0.014-1.802 0.372-3.507 1.074-5.060 0.773-1.719-0.157-2.537-1.947-1.802-5.67 2.315-9.55 7.847-9.078 14.182z">
      </path>
    </symbol>
    <symbol id="icon-sun" viewBox="0 0 32 32">
      <path fill="none" stroke="#fff" style="stroke: var(--color1, #fff)" stroke-linejoin="round" stroke-linecap="round"
        stroke-miterlimit="4" stroke-width="2"
        d="M16 26c5.523 0 10-4.477 10-10s-4.477-10-10-10v0c-5.523 0-10 4.477-10 10s4.477 10 10 10v0z"></path>
      <path fill="none" stroke="#fff" style="stroke: var(--color1, #fff)" stroke-linejoin="round" stroke-linecap="round"
        stroke-miterlimit="4" stroke-width="3"
        d="M25.814 6.186l0.182-0.182M6.004 25.996l0.182-0.182M16 2.112v-0.112M16 30v-0.112M2.112 16h-0.112M30 16h-0.112M6.186 6.186l-0.182-0.182M25.996 25.996l-0.182-0.182">
      </path>
    </symbol>
    <symbol id="icon-heart" viewBox="0 0 32 32">
      <path fill="#f87719" style="fill: var(--color2, #f87719)"
        d="M16 30.583l-2.24-2.24c-8.32-7.36-13.76-12.32-13.76-18.4 0-4.96 3.84-8.8 8.8-8.8 2.72 0 5.44 1.28 7.2 3.36 1.76-2.080 4.48-3.36 7.2-3.36 4.96 0 8.8 3.84 8.8 8.8 0 6.080-5.44 11.040-13.76 18.4l-2.24 2.24z">
      </path>
    </symbol>
    <symbol id="icon-close" viewBox="0 0 32 32">
      <path stroke="#fff" style="stroke: var(--color-text-data)" stroke-linejoin="round" stroke-linecap="round"
        stroke-miterlimit="4" stroke-width="1.3333" d="M23 23l-14-14M23 9l-14 14"></path>
    </symbol>
    <symbol id="icon-search" viewBox="0 0 32 32">
      <path fill="none" stroke="currentColor" stroke-linejoin="round" stroke-linecap="round"
        stroke-miterlimit="4" stroke-width="2.0800"
        d="M14.667 25.333c5.891 0 10.667-4.776 10.667-10.667s-4.776-10.667-10.667-10.667c-5.891 0-10.667 4.776-10.667 10.667s4.776 10.667 10.667 10.667z">
      </path>
      <path fill="none" stroke="currentColor" stroke-linejoin="round" stroke-linecap="round"
        stroke-miterlimit="4" stroke-width="2.0800" d="M28 28l-5.8-5.8"></path>
    </symbol>
    <symbol id="icon-scroll-up-button" viewBox="0 0 32 32">
<path d="M27.414 12.586l-10-10c-0.781-0.781-2.047-0.781-2.828 0l-10 10c-0.781 0.781-0.781 2.047 0 2.828s2.047 0.781 2.828 0l6.586-6.586v19.172c0 1.105 0.895 2 2 2s2-0.895 2-2v-19.172l6.586 6.586c0.39 0.39 0.902 0.586 1.414 0.586s1.024-0.195 1.414-0.586c0.781-0.781 0.781-2.047 0-2.828z"></path>
</symbol>
<symbol id="icon-github" viewBox="0 0 32 32">
<path d="M16 0c-8.835 0-16 7.164-16 16 0 7.069 4.584 13.067 10.943 15.183 0.799 0.148 1.057-0.348 1.057-0.769v-2.979c-4.451 0.968-5.377-1.888-5.377-1.888-0.728-1.849-1.777-2.341-1.777-2.341-1.452-0.993 0.111-0.972 0.111-0.972 1.607 0.112 2.452 1.649 2.452 1.649 1.427 2.445 3.743 1.739 4.656 1.329 0.143-1.033 0.557-1.74 1.016-2.139-3.553-0.407-7.289-1.779-7.289-7.908 0-1.748 0.625-3.175 1.648-4.295-0.165-0.404-0.713-2.032 0.156-4.235 0 0 1.344-0.429 4.401 1.64 1.276-0.355 2.644-0.532 4.004-0.539 1.36 0.007 2.729 0.184 4.008 0.539 3.055-2.069 4.396-1.64 4.396-1.64 0.871 2.204 0.323 3.832 0.157 4.235 1.027 1.12 1.647 2.548 1.647 4.295 0 6.145-3.743 7.499-7.305 7.895 0.573 0.496 1.097 1.469 1.097 2.963v4.391c0 0.425 0.256 0.925 1.068 0.768 6.353-2.119 10.932-8.115 10.932-15.181 0-8.836-7.164-16-16-16z"></path>
</symbol>
<symbol id="icon-inkedin" viewBox="0 0 32 32">
<path d="M25.333 0h-18.667c-3.681 0-6.667 2.985-6.667 6.667v18.667c0 3.681 2.985 6.667 6.667 6.667h18.667c3.683 0 6.667-2.985 6.667-6.667v-18.667c0-3.681-2.984-6.667-6.667-6.667zM10.667 25.333h-4v-14.667h4v14.667zM8.667 8.976c-1.288 0-2.333-1.053-2.333-2.352s1.045-2.352 2.333-2.352 2.333 1.053 2.333 2.352-1.044 2.352-2.333 2.352zM26.667 25.333h-4v-7.472c0-4.491-5.333-4.151-5.333 0v7.472h-4v-14.667h4v2.353c1.861-3.448 9.333-3.703 9.333 3.301v9.012z"></path>
</symbol>
  </defs>
</svg>